<svg width="49" height="48" viewBox="0 0 49 48" fill="none" xmlns="http://www.w3.org/2000/svg">
<path d="M24.3334 24C24.3334 21.8783 25.1762 19.8434 26.6765 18.3431C28.1768 16.8429 30.2116 16 32.3334 16C34.4551 16 36.4899 16.8429 37.9902 18.3431C39.4905 19.8434 40.3334 21.8783 40.3334 24C40.3334 26.1217 39.4905 28.1566 37.9902 29.6569C36.4899 31.1571 34.4551 32 32.3334 32C30.2116 32 28.1768 31.1571 26.6765 29.6569C25.1762 28.1566 24.3334 26.1217 24.3334 24ZM8.33337 40C8.33337 37.8783 9.17623 35.8434 10.6765 34.3431C12.1768 32.8429 14.2116 32 16.3334 32H24.3334V40C24.3334 42.1217 23.4905 44.1566 21.9902 45.6569C20.4899 47.1571 18.4551 48 16.3334 48C14.2116 48 12.1768 47.1571 10.6765 45.6569C9.17623 44.1566 8.33337 42.1217 8.33337 40ZM24.3334 0V16H32.3334C34.4551 16 36.4899 15.1571 37.9902 13.6569C39.4905 12.1566 40.3334 10.1217 40.3334 8C40.3334 5.87827 39.4905 3.84344 37.9902 2.34315C36.4899 0.842855 34.4551 0 32.3334 0L24.3334 0ZM8.33337 8C8.33337 10.1217 9.17623 12.1566 10.6765 13.6569C12.1768 15.1571 14.2116 16 16.3334 16H24.3334V0H16.3334C14.2116 0 12.1768 0.842855 10.6765 2.34315C9.17623 3.84344 8.33337 5.87827 8.33337 8ZM8.33337 24C8.33337 26.1217 9.17623 28.1566 10.6765 29.6569C12.1768 31.1571 14.2116 32 16.3334 32H24.3334V16H16.3334C14.2116 16 12.1768 16.8429 10.6765 18.3431C9.17623 19.8434 8.33337 21.8783 8.33337 24Z" fill="#F76E60"/>
</svg>
