<svg width="42" height="54" viewBox="0 0 42 54" fill="none" xmlns="http://www.w3.org/2000/svg">
<path fill-rule="evenodd" clip-rule="evenodd" d="M20.4561 29.6235C-11.3569 3.42681 15.7859 -17.1717 24.4725 25.7939C30.8809 -9.94602 41.0984 14.8658 29.7031 29.6235C46.0433 25.5201 44.7411 47.3703 27.1812 33.1729C31.4073 58.6068 15.0387 60.9138 22.978 32.2389C2.23733 55.9479 -12.6907 28.7377 20.4561 29.6235ZM24.524 31.3083C25.6874 31.7318 26.8879 31.3677 27.2055 30.4952C27.5231 29.6226 26.8374 28.572 25.674 28.1486C24.5106 27.7251 23.3101 28.0892 22.9925 28.9617C22.6749 29.8343 23.3606 30.8849 24.524 31.3083Z" fill="white"/>
<path d="M24.4725 25.7939L24.3809 25.8125L24.5644 25.8104L24.4725 25.7939ZM20.4561 29.6235L20.4536 29.7169L20.7252 29.7241L20.5155 29.5514L20.4561 29.6235ZM29.7031 29.6235L29.6292 29.5664L29.4645 29.7797L29.7258 29.7141L29.7031 29.6235ZM27.1812 33.1729L27.2399 33.1003L27.0488 32.9457L27.0891 33.1882L27.1812 33.1729ZM22.978 32.2389L23.068 32.2638L22.9077 32.1774L22.978 32.2389ZM24.524 31.3083L24.5559 31.2206L24.524 31.3083ZM25.674 28.1486L25.706 28.0608L25.674 28.1486ZM22.9925 28.9617L22.9047 28.9298L22.9925 28.9617ZM24.564 25.7754C22.3906 15.0254 19.0607 8.239 15.7766 4.52043C14.1346 2.6612 12.5 1.56435 11.0226 1.12734C9.54309 0.689681 8.22051 0.914428 7.21933 1.69933C6.22032 2.48253 5.55493 3.81268 5.36334 5.56057C5.17169 7.30892 5.45294 9.48146 6.3532 11.9632C8.1538 16.9269 12.4346 23.1392 20.3967 29.6956L20.5155 29.5514C12.571 23.0095 8.31487 16.8231 6.52881 11.8995C5.63573 9.43757 5.36123 7.29422 5.54903 5.58092C5.73689 3.86717 6.38614 2.5899 7.33458 1.84634C8.28086 1.10449 9.53853 0.883141 10.9696 1.30648C12.403 1.73047 14.0094 2.80171 15.6366 4.64409C18.8907 8.32875 22.211 15.0797 24.3809 25.8125L24.564 25.7754ZM29.777 29.6806C32.6374 25.9761 34.1406 21.6423 34.6869 17.7864C35.2325 13.9348 34.8256 10.5432 33.8464 8.72774C33.3572 7.82079 32.7091 7.2808 31.9441 7.31509C31.1867 7.34905 30.3631 7.94611 29.5186 9.18665C27.8256 11.6734 25.9829 16.8409 24.3805 25.7775L24.5644 25.8104C26.1662 16.877 28.0039 11.7435 29.673 9.29177C30.5095 8.06307 31.2874 7.53153 31.9525 7.50171C32.6101 7.47223 33.2057 7.9333 33.682 8.81642C34.6338 10.5811 35.0451 13.9258 34.5019 17.7602C33.9593 21.5902 32.4664 25.892 29.6292 29.5664L29.777 29.6806ZM27.1225 33.2455C31.5191 36.8002 34.9134 38.1119 37.2807 38.1242C38.466 38.1304 39.3964 37.8106 40.0625 37.28C40.7288 36.7493 41.1243 36.0127 41.2471 35.1973C41.4924 33.568 40.6498 31.6315 38.7232 30.3654C36.7947 29.098 33.7838 28.5024 29.6803 29.5329L29.7258 29.7141C33.7925 28.6929 36.7464 29.2898 38.6206 30.5215C40.4969 31.7546 41.295 33.624 41.0623 35.1695C40.9461 35.9417 40.5729 36.6348 39.9462 37.1339C39.3193 37.6332 38.4325 37.9434 37.2817 37.9374C34.9767 37.9254 31.6233 36.6443 27.2399 33.1003L27.1225 33.2455ZM22.888 32.2139C20.9015 39.3889 20.4331 44.6337 20.7867 48.0683C20.9635 49.7848 21.3463 51.0561 21.8534 51.8904C22.3609 52.7252 23.0029 53.136 23.6934 53.0899C24.3773 53.0443 25.0713 52.5518 25.6915 51.6689C26.3134 50.7834 26.8717 49.4911 27.2816 47.8115C28.1015 44.4513 28.3313 39.5251 27.2733 33.1576L27.0891 33.1882C28.1441 39.5377 27.9126 44.4376 27.1001 47.7672C26.6938 49.4324 26.1431 50.7009 25.5386 51.5615C24.9324 52.4246 24.2827 52.8634 23.6809 52.9035C23.0857 52.9433 22.5 52.5944 22.0131 51.7934C21.5259 50.992 21.1479 49.7513 20.9726 48.0491C20.6221 44.6462 21.0849 39.4263 23.068 32.2638L22.888 32.2139ZM20.4586 29.5301C12.1621 29.3084 6.85696 30.8439 3.8961 32.916C0.93427 34.9889 0.304798 37.6163 1.42861 39.5371C2.54706 41.4487 5.37123 42.601 9.19189 41.7993C13.016 40.9969 17.8545 38.2375 23.0483 32.3004L22.9077 32.1774C17.7311 38.0948 12.9259 40.825 9.15353 41.6165C5.3777 42.4088 2.65265 41.2593 1.58985 39.4427C0.532411 37.6354 1.08966 35.1081 4.00321 33.0691C6.91774 31.0293 12.1767 29.4957 20.4536 29.7169L20.4586 29.5301ZM27.1177 30.4632C26.9712 30.8657 26.6189 31.1576 26.1548 31.2983C25.6907 31.4391 25.1205 31.426 24.5559 31.2206L24.492 31.3961C25.0909 31.6141 25.7026 31.6307 26.209 31.4771C26.7154 31.3235 27.1222 30.9972 27.2933 30.5271L27.1177 30.4632ZM25.6421 28.2363C26.2066 28.4418 26.6518 28.7983 26.9169 29.2045C27.182 29.6106 27.2642 30.0608 27.1177 30.4632L27.2933 30.5271C27.4644 30.057 27.3626 29.5456 27.0733 29.1024C26.7841 28.6593 26.3048 28.2788 25.706 28.0608L25.6421 28.2363ZM23.0803 28.9937C23.2267 28.5912 23.5791 28.2993 24.0432 28.1586C24.5073 28.0178 25.0775 28.0309 25.6421 28.2363L25.706 28.0608C25.1071 27.8428 24.4954 27.8262 23.989 27.9798C23.4826 28.1334 23.0758 28.4597 22.9047 28.9298L23.0803 28.9937ZM24.5559 31.2206C23.9914 31.0151 23.5462 30.6586 23.2811 30.2524C23.016 29.8463 22.9338 29.3961 23.0803 28.9937L22.9047 28.9298C22.7336 29.3999 22.8354 29.9113 23.1247 30.3545C23.4139 30.7976 23.8932 31.1781 24.492 31.3961L24.5559 31.2206Z" fill="white"/>
</svg>
