<svg width="36" height="36" viewBox="0 0 36 36" fill="none" xmlns="http://www.w3.org/2000/svg">
<path fill-rule="evenodd" clip-rule="evenodd" d="M8 18C8 17.4477 8.44772 17 9 17H27C27.5523 17 28 17.4477 28 18C28 18.5523 27.5523 19 27 19H9C8.44772 19 8 18.5523 8 18Z" fill="white"/>
<path fill-rule="evenodd" clip-rule="evenodd" d="M8 12C8 11.4477 8.44772 11 9 11H27C27.5523 11 28 11.4477 28 12C28 12.5523 27.5523 13 27 13H9C8.44772 13 8 12.5523 8 12Z" fill="white"/>
<path fill-rule="evenodd" clip-rule="evenodd" d="M8 24C8 23.4477 8.44772 23 9 23H27C27.5523 23 28 23.4477 28 24C28 24.5523 27.5523 25 27 25H9C8.44772 25 8 24.5523 8 24Z" fill="white"/>
</svg>
